<svg width="36" height="36" viewBox="0 0 36 36" fill="none" xmlns="http://www.w3.org/2000/svg">
<rect width="36" height="36" rx="18" fill="#FFDB69"/>
<path d="M10.2256 23.1794C10.2256 26.5788 13.9806 27.5003 18.6128 27.5003C23.2449 27.5003 27 26.5788 27 23.1794C27 19.5043 23.2449 16.5254 18.6128 16.5254C13.9806 16.5254 10.2256 19.5043 10.2256 23.1794Z" fill="black"/>
<path d="M16.765 17.4598C16.765 17.4598 16.301 14.4592 14.5437 11.0593C12.7684 7.62492 7.81869 10.1239 9.25941 13.7275C10.1411 15.9327 11.3971 17.9036 12.8076 19.4429" fill="black"/>
<path d="M17.8279 18.0256C17.8279 18.0256 17.2125 15.0552 17.6604 11.2131C18.1128 7.33174 23.5878 7.73737 23.5058 11.6474C23.4555 14.0398 22.9749 16.3591 22.2004 18.3369" fill="black"/>
<path d="M18.6483 24.5413C18.6312 24.5413 18.6136 24.5366 18.5975 24.5265C18.5497 24.4968 18.5336 24.4316 18.5617 24.3812C19.0162 23.5668 18.5326 23.0344 18.5114 23.0121C18.4727 22.9708 18.4727 22.9034 18.5119 22.8621C18.5512 22.8207 18.6146 22.8207 18.6538 22.8621C18.6599 22.8684 19.2703 23.5286 18.7349 24.4883C18.7162 24.5217 18.6825 24.5408 18.6478 24.5408L18.6483 24.5413Z" fill="white"/>
<path d="M18.8515 23.6872C18.7996 23.6872 18.7553 23.6448 18.7513 23.5897C18.7468 23.5313 18.7886 23.4804 18.8439 23.4757L21.0681 23.2933C21.124 23.289 21.1718 23.3325 21.1763 23.3908C21.1809 23.4491 21.1391 23.5001 21.0837 23.5048L18.8595 23.6872C18.857 23.6872 18.854 23.6872 18.8515 23.6872Z" fill="white"/>
<path d="M22.1816 22.9005C23.2521 22.9005 24.12 21.9969 24.12 20.8824C24.12 19.7678 23.2521 18.8643 22.1816 18.8643C21.111 18.8643 20.2432 19.7678 20.2432 20.8824C20.2432 21.9969 21.111 22.9005 22.1816 22.9005Z" fill="white"/>
<path d="M16.6435 23.1221C17.714 23.1221 18.5819 22.2186 18.5819 21.104C18.5819 19.9895 17.714 19.0859 16.6435 19.0859C15.5729 19.0859 14.7051 19.9895 14.7051 21.104C14.7051 22.2186 15.5729 23.1221 16.6435 23.1221Z" fill="white"/>
<path d="M17.535 22.3299C18.0279 22.242 18.3393 21.6213 18.2304 20.9437C18.1215 20.266 17.6336 19.788 17.1406 19.8759C16.6477 19.9639 16.3363 20.5845 16.4452 21.2622C16.5541 21.9398 17.042 22.4179 17.535 22.3299Z" fill="black"/>
<path d="M23.0311 22.0008C23.524 21.9129 23.8354 21.2922 23.7265 20.6146C23.6176 19.9369 23.1297 19.4589 22.6367 19.5468C22.1438 19.6348 21.8324 20.2554 21.9413 20.9331C22.0502 21.6107 22.5381 22.0888 23.0311 22.0008Z" fill="black"/>
<path d="M16.1567 21.57C16.528 21.57 16.829 21.4162 16.829 21.2264C16.829 21.0366 16.528 20.8828 16.1567 20.8828C15.7854 20.8828 15.4844 21.0366 15.4844 21.2264C15.4844 21.4162 15.7854 21.57 16.1567 21.57Z" fill="white"/>
<path d="M21.7133 21.3151C22.0846 21.3151 22.3856 21.1613 22.3856 20.9715C22.3856 20.7818 22.0846 20.6279 21.7133 20.6279C21.342 20.6279 21.041 20.7818 21.041 20.9715C21.041 21.1613 21.342 21.3151 21.7133 21.3151Z" fill="white"/>
</svg>
